# xmcd CD database file
#
# Track frame offsets:
#	182
#	46692
#	94530
#	144352
#	183242
#	215385
#	262027
#	310500
#
# Disc length: 4367 seconds
#
# Revision: 0
# Processed by: cddbd v1.5.2PL0 Copyright (c) Steve Scherf et al.
# Submitted via: CDex 1.51
#
DISCID=60110d08
DTITLE=Yan Tregger - Blue
DYEAR=1993
DGENRE=New Age
TTITLE0=Yan Tregger - Transparence oceanique
TTITLE1=Yan Tregger - Mermaid's song
TTITLE2=Yan Tregger - Stormy waves
TTITLE3=Yan Tregger - Submarine memory
TTITLE4=Yan Tregger - Prismatic grot
TTITLE5=Yan Tregger - Whale's dream
TTITLE6=Yan Tregger - Blue Sand
TTITLE7=Yan Tregger - Sea's voice
EXTD=YEAR: 1993
EXTT0=
EXTT1=
EXTT2=
EXTT3=
EXTT4=
EXTT5=
EXTT6=
EXTT7=
PLAYORDER=
